<?xml version="1.0" standalone="no"?>
<!DOCTYPE svg PUBLIC "-//W3C//DTD SVG 20010904//EN"
 "http://www.w3.org/TR/2001/REC-SVG-20010904/DTD/svg10.dtd">
<svg version="1.0" xmlns="http://www.w3.org/2000/svg"
 width="700.000000pt" height="700.000000pt" viewBox="0 0 700.000000 700.000000"
 preserveAspectRatio="xMidYMid meet">
<metadata>
Created by potrace 1.11, written by Peter Selinger 2001-2013
</metadata>
<g transform="translate(0.000000,700.000000) scale(0.100000,-0.100000)"
fill="#000000" stroke="none">
<path d="M1359 6996 c-2 -2 -35 -6 -74 -10 -687 -59 -1170 -301 -1268 -634
-22 -74 -16 -191 13 -262 56 -132 170 -275 325 -406 38 -32 75 -63 81 -69 6
-5 22 -19 35 -30 13 -11 85 -74 159 -139 223 -195 253 -222 295 -257 22 -19
45 -39 50 -45 6 -5 44 -39 85 -75 41 -35 80 -68 86 -74 6 -5 41 -37 79 -70 38
-33 81 -71 96 -85 15 -14 40 -36 56 -49 57 -50 328 -286 333 -291 3 -3 57 -51
120 -105 63 -55 122 -107 130 -115 9 -8 30 -26 46 -40 16 -14 69 -60 117 -102
48 -43 91 -78 96 -78 5 0 108 159 229 353 120 193 365 586 544 872 178 286
331 531 339 544 8 14 26 43 40 65 l26 39 -26 44 c-14 24 -65 105 -112 180 -47
76 -108 176 -134 223 -68 119 -99 163 -154 218 -107 107 -315 220 -506 276
-78 23 -197 54 -230 60 -76 14 -225 38 -270 42 -27 3 -66 8 -85 10 -38 6 -516
15 -521 10z m451 -240 c52 -4 111 -9 130 -11 19 -3 53 -7 75 -10 121 -15 285
-54 409 -96 284 -97 447 -215 482 -350 20 -78 1 -140 -67 -214 -130 -141 -438
-270 -764 -320 -201 -30 -317 -39 -550 -39 -320 -1 -548 33 -782 115 -230 81
-447 228 -495 336 -89 202 134 380 642 511 63 17 129 32 145 35 17 3 55 10 85
16 75 15 119 20 230 27 52 3 96 7 97 8 4 4 281 -2 363 -8z"/>
<path d="M5287 6994 c-1 -1 -56 -4 -122 -8 -506 -28 -943 -181 -1140 -399 -54
-60 -74 -89 -240 -357 -127 -207 -243 -393 -263 -425 -24 -37 -46 -71 -433
-692 -173 -277 -318 -511 -324 -520 -12 -22 -228 -370 -344 -553 -46 -74 -112
-180 -146 -235 -104 -168 -266 -428 -290 -465 -13 -19 -105 -168 -206 -330
-101 -162 -339 -545 -529 -850 -331 -531 -405 -650 -441 -709 -9 -14 -82 -131
-163 -260 -80 -129 -146 -237 -146 -242 0 -4 -4 -9 -8 -11 -5 -1 -23 -28 -41
-58 -17 -30 -67 -111 -111 -180 -88 -140 -223 -358 -287 -464 -31 -51 -43 -81
-43 -109 0 -76 64 -138 126 -123 26 7 94 50 143 91 117 97 188 161 371 335 14
14 75 68 135 120 61 52 115 100 120 106 6 6 100 89 210 185 110 95 202 176
205 179 3 3 41 37 85 75 44 38 82 71 85 74 3 4 21 19 40 35 19 16 58 49 86 75
28 25 77 69 109 96 32 28 79 68 104 91 25 23 109 96 186 164 77 67 167 146
200 175 33 29 78 67 100 86 22 19 45 39 50 45 6 6 172 152 370 325 198 172
376 328 395 345 36 33 289 254 331 290 32 27 293 256 345 303 35 31 69 61 188
164 72 63 332 291 382 336 22 20 66 59 99 86 32 28 63 55 69 60 6 6 45 39 86
75 41 36 84 74 95 85 12 11 45 40 74 65 29 25 65 56 81 70 15 14 53 48 85 75
32 28 63 55 69 60 6 6 63 55 126 110 63 55 120 105 126 110 6 6 39 35 74 65
35 30 73 64 84 75 12 11 53 47 91 80 39 33 75 64 81 70 42 38 371 326 468 410
32 28 68 59 80 70 12 11 53 47 91 80 37 33 73 65 79 70 6 6 43 37 81 70 39 33
75 65 80 71 6 5 64 57 130 114 66 58 142 127 168 155 65 66 157 206 181 275
25 69 29 196 9 265 -72 245 -344 438 -768 544 -78 19 -93 23 -165 35 -77 13
-97 16 -140 22 -127 15 -611 37 -623 28z m383 -238 c62 -4 116 -9 120 -11 3
-1 32 -6 65 -9 33 -4 103 -16 155 -27 52 -11 105 -23 118 -25 49 -10 192 -59
282 -97 338 -143 443 -345 273 -521 -69 -72 -231 -163 -373 -211 -30 -10 -72
-24 -92 -31 -43 -16 -173 -47 -243 -59 -206 -36 -341 -48 -550 -48 -411 -1
-758 67 -1045 205 -304 146 -378 338 -195 507 188 174 568 297 1005 327 52 3
96 7 97 8 4 4 284 -2 383 -8z"/>
<path d="M4711 3759 c-13 -11 -52 -44 -85 -74 -34 -29 -72 -63 -86 -75 -14
-12 -52 -45 -85 -74 -33 -30 -103 -91 -155 -136 -93 -81 -222 -195 -244 -215
-6 -6 -49 -43 -96 -84 -123 -107 -206 -180 -259 -228 -25 -24 -49 -43 -53 -43
-14 0 -8 -20 10 -37 10 -10 44 -40 76 -68 33 -27 66 -57 75 -66 9 -8 86 -76
171 -150 85 -73 160 -138 166 -144 6 -5 42 -37 79 -70 86 -75 158 -138 165
-145 3 -3 39 -34 80 -70 41 -36 77 -67 80 -70 3 -3 77 -68 165 -145 88 -76
162 -142 165 -145 3 -3 34 -30 70 -60 35 -30 71 -62 80 -70 9 -8 47 -42 85
-75 37 -33 76 -67 85 -75 9 -8 41 -35 70 -60 29 -25 57 -50 64 -56 6 -5 38
-34 71 -63 33 -29 71 -63 85 -75 14 -12 81 -71 150 -131 69 -60 127 -112 130
-115 3 -3 203 -178 445 -390 242 -211 442 -387 445 -390 22 -23 150 -129 167
-139 55 -28 130 -5 159 50 18 36 18 62 -2 102 -15 28 -202 332 -322 522 -139
220 -483 772 -488 783 -4 8 -65 106 -135 219 -71 113 -129 207 -129 209 0 2
-13 23 -29 46 -16 24 -206 327 -422 673 -215 347 -461 741 -545 876 -84 135
-156 253 -160 263 -8 20 -14 20 -43 -5z"/>
</g>
</svg>
