<svg data-v-fde0c5aa="" xmlns="http://www.w3.org/2000/svg" viewBox="0 0 300 300" class="iconLeft"><!----><defs data-v-fde0c5aa=""><!----></defs><rect data-v-fde0c5aa="" fill="#F7F2D9" x="0" y="0" width="300px" height="300px" class="logo-background-square"></rect><defs data-v-fde0c5aa=""><!----></defs><g data-v-fde0c5aa="" id="1fb1725c-2e35-4116-baaa-10297c8ad3ac" fill="#3E261A" transform="matrix(1.6124671697616577,0,0,1.6124671697616577,84.30558005633637,139.19647053927804)"><path d="M7.22 6.93C7.22 4.86 5.87 3.54 4.00 3.54C2.16 3.54 0.67 4.86 0.67 6.93C0.67 9.00 2.16 10.36 4.00 10.36C5.24 10.36 6.36 9.77 6.93 8.72L6.16 8.39C5.73 9.10 4.93 9.51 4.03 9.51C2.72 9.51 1.74 8.72 1.58 7.32L7.21 7.32C7.22 7.20 7.22 7.06 7.22 6.93ZM1.60 6.55C1.76 5.15 2.72 4.40 4.00 4.40C5.28 4.40 6.22 5.19 6.34 6.55ZM10.82 10.36C12.18 10.36 13.23 9.62 13.23 8.46C13.23 7.70 12.84 6.93 11.56 6.62L10.60 6.38C10.12 6.27 9.59 6.01 9.59 5.39C9.59 4.77 10.11 4.34 10.86 4.34C11.51 4.34 12.08 4.73 12.12 5.32L12.99 5.32C12.95 4.14 11.94 3.54 10.85 3.54C9.60 3.54 8.69 4.31 8.69 5.38C8.69 6.47 9.44 6.94 10.36 7.17L11.30 7.39C11.97 7.56 12.33 7.91 12.33 8.44C12.33 9.10 11.76 9.56 10.82 9.56C9.87 9.56 9.37 9.00 9.27 8.46L8.44 8.46C8.55 9.70 9.69 10.36 10.82 10.36ZM17.81 3.68L16.31 3.68L16.31 1.08L15.43 1.08L15.43 3.68L14.24 3.68L14.24 4.45L15.43 4.45L15.43 10.22L16.31 10.22L16.31 4.45L17.81 4.45ZM22.15 3.54C21.13 3.54 20.43 4.17 20.10 5.28L20.10 3.68L19.19 3.68L19.19 10.22L20.10 10.22L20.10 7.76C20.10 6.15 20.58 4.41 22.13 4.41C22.37 4.41 22.68 4.45 23.02 4.59L23.18 3.74C22.93 3.61 22.51 3.54 22.15 3.54ZM30.21 6.93C30.21 4.86 28.85 3.54 26.99 3.54C25.14 3.54 23.66 4.86 23.66 6.93C23.66 9.00 25.14 10.36 26.99 10.36C28.22 10.36 29.34 9.77 29.92 8.72L29.15 8.39C28.71 9.10 27.92 9.51 27.02 9.51C25.70 9.51 24.72 8.72 24.57 7.32L30.20 7.32C30.21 7.20 30.21 7.06 30.21 6.93ZM24.58 6.55C24.75 5.15 25.70 4.40 26.99 4.40C28.27 4.40 29.20 5.19 29.33 6.55ZM35.13 3.54C34.31 3.54 33.25 3.92 32.86 4.86L32.86 3.68L31.96 3.68L31.96 10.22L32.86 10.22L32.86 6.59C32.89 5.01 33.99 4.42 35.04 4.42C36.09 4.42 36.89 5.19 36.89 6.45L36.89 10.22L37.79 10.22L37.79 6.41C37.79 4.61 36.71 3.54 35.13 3.54ZM42.90 10.36C44.76 10.36 46.33 9.00 46.33 6.93C46.33 4.86 44.76 3.54 42.90 3.54C41.03 3.54 39.48 4.86 39.48 6.93C39.48 9.00 41.03 10.36 42.90 10.36ZM42.90 9.51C41.51 9.51 40.38 8.48 40.38 6.93C40.38 5.39 41.51 4.40 42.90 4.40C44.27 4.40 45.43 5.39 45.43 6.93C45.43 8.48 44.27 9.51 42.90 9.51ZM49.95 10.36C51.31 10.36 52.36 9.62 52.36 8.46C52.36 7.70 51.97 6.93 50.69 6.62L49.73 6.38C49.25 6.27 48.72 6.01 48.72 5.39C48.72 4.77 49.24 4.34 49.99 4.34C50.64 4.34 51.21 4.73 51.25 5.32L52.12 5.32C52.08 4.14 51.07 3.54 49.98 3.54C48.73 3.54 47.82 4.31 47.82 5.38C47.82 6.47 48.57 6.94 49.49 7.17L50.43 7.39C51.10 7.56 51.46 7.91 51.46 8.44C51.46 9.10 50.89 9.56 49.95 9.56C49 9.56 48.50 9.00 48.40 8.46L47.57 8.46C47.68 9.70 48.82 10.36 49.95 10.36ZM60.79 10.35C61.73 10.35 62.55 10.01 63.14 9.45L62.58 8.85C62.13 9.25 61.52 9.49 60.82 9.49C59.39 9.49 58.23 8.47 58.23 6.94C58.23 5.40 59.39 4.40 60.82 4.40C61.52 4.40 62.13 4.65 62.58 5.05L63.14 4.44C62.55 3.89 61.73 3.54 60.79 3.54C58.93 3.54 57.33 4.87 57.33 6.94C57.33 9.02 58.93 10.35 60.79 10.35ZM65.24 1.90C65.63 1.90 65.94 1.64 65.94 1.27C65.94 0.90 65.63 0.63 65.24 0.63C64.88 0.63 64.55 0.90 64.55 1.27C64.55 1.64 64.88 1.90 65.24 1.90ZM64.79 10.22L65.69 10.22L65.69 3.68L64.79 3.68ZM71.09 3.54C70.28 3.54 69.22 3.92 68.82 4.86L68.82 3.68L67.93 3.68L67.93 10.22L68.82 10.22L68.82 6.59C68.85 5.01 69.96 4.42 71.01 4.42C72.06 4.42 72.86 5.19 72.86 6.45L72.86 10.22L73.75 10.22L73.75 6.41C73.75 4.61 72.67 3.54 71.09 3.54ZM82.00 6.93C82.00 4.86 80.64 3.54 78.78 3.54C76.93 3.54 75.45 4.86 75.45 6.93C75.45 9.00 76.93 10.36 78.78 10.36C80.01 10.36 81.13 9.77 81.70 8.72L80.93 8.39C80.50 9.10 79.70 9.51 78.81 9.51C77.49 9.51 76.51 8.72 76.36 7.32L81.98 7.32C82.00 7.20 82.00 7.06 82.00 6.93ZM76.37 6.55C76.54 5.15 77.49 4.40 78.78 4.40C80.05 4.40 80.99 5.19 81.12 6.55ZM90.58 3.54C89.77 3.54 88.70 3.92 88.31 4.86L88.31 0L87.42 0L87.42 10.22L88.31 10.22L88.31 6.59C88.34 5.01 89.45 4.42 90.50 4.42C91.55 4.42 92.34 5.19 92.34 6.45L92.34 10.22L93.24 10.22L93.24 6.41C93.24 4.61 92.16 3.54 90.58 3.54ZM98.35 10.36C100.21 10.36 101.78 9.00 101.78 6.93C101.78 4.86 100.21 3.54 98.35 3.54C96.49 3.54 94.93 4.86 94.93 6.93C94.93 9.00 96.49 10.36 98.35 10.36ZM98.35 9.51C96.96 9.51 95.83 8.48 95.83 6.93C95.83 5.39 96.96 4.40 98.35 4.40C99.72 4.40 100.88 5.39 100.88 6.93C100.88 8.48 99.72 9.51 98.35 9.51ZM108.00 3.68L105.74 9.03L103.52 3.68L102.55 3.68L105.25 10.14L103.91 13.40L104.86 13.40L108.96 3.68Z"></path></g><defs data-v-fde0c5aa=""><linearGradient data-v-fde0c5aa="" gradientTransform="rotate(25)" id="5e1234be-cb3e-447c-b5f7-7463c914d788" x1="0%" y1="0%" x2="100%" y2="0%"><stop data-v-fde0c5aa="" offset="0%" stop-color="#C5194B" stop-opacity="1"></stop><stop data-v-fde0c5aa="" offset="100%" stop-color="#DFDF4F" stop-opacity="1"></stop></linearGradient></defs><g data-v-fde0c5aa="" id="c749ffff-4b81-4220-8787-67feee0cf1fd" stroke="none" fill="url(#5e1234be-cb3e-447c-b5f7-7463c914d788)" transform="matrix(0.5397732257843018,0,0,0.5397732257843018,39.999536491745744,133.80392240597033)"><g fill-rule="evenodd"><path d="M53.595 48.427L40.613 27.578l-9.475 8.312 21.319 18.701 4.817 4.226c.333.292.666.585 1 .876.879.771 2.202-.215 1.549-1.263l-6.228-10.003M1.987 10.319c.641.644 1.367 1.199 2.05 1.799l6.504 5.704 8.507 7.463L29.117 9.113l-1.87-3.003c-.606-.972-.989-1.988-1.869-2.782-1.929-1.74-4.655-2.526-7.16-2.949A28.3 28.3 0 0 0 8.219.48C5.813.945 3.18 1.769 1.39 3.531.752 4.158.238 4.937.065 5.827a3.493 3.493 0 0 0 .072 1.632c.176.613.832 1.838 1.85 2.86zm8.645-8.172c.952-.1 1.91-.147 2.868-.147 2.637 0 5.349.324 7.827 1.265 1.29.491 3.135 1.31 3.596 2.759.414 1.298-.941 2.347-1.909 2.916-1.99 1.169-4.375 1.673-6.646 1.913-4.502.474-10.418.182-13.872-3.13-2.88-3.602 6.361-5.388 8.136-5.576zM60 6.5C60 2.17 53.548.545 50.294.24c-4.903-.459-10.763-.349-14.829 2.428-1.334.911-1.897 2.134-2.702 3.427l-2.165 3.477-18.689 30.015L3.265 53.47a8559.17 8559.17 0 0 1-3.028 4.863c-.587.943.441 2.277 1.423 1.419 1.667-1.136 3.15-2.763 4.663-4.091l11.513-10.098 28.726-25.199 9.178-8.051 1.964-1.723c.713-.625 1.281-1.389 1.757-2.21l.008-.013A3.704 3.704 0 0 0 60 6.5zM46.5 2c2.62 0 5.312.32 7.776 1.248 1.299.489 3.122 1.295 3.621 2.73.709 2.039-2.576 3.404-3.985 3.898-2.241.788-4.652 1.084-7.018 1.121-2.682.042-5.444-.261-7.979-1.173-1.349-.485-3.221-1.278-3.796-2.728-.501-1.267.731-2.332 1.689-2.929 1.921-1.195 4.267-1.717 6.487-1.982A27.021 27.021 0 0 1 46.5 2z"></path></g></g><!----></svg>