<svg data-v-423bf9ae="" xmlns="http://www.w3.org/2000/svg" viewBox="0 0 59.95435691237638 60" class="icon"><!----><!----><!----><!----><g data-v-423bf9ae="" id="6f83f0ba-bb86-4802-a13b-671ebcae152c" transform="matrix(0.999253511428833,0,0,0.999253511428833,-0.0008575082756578922,0.017061879858374596)" stroke="none" fill="black"><g fill-rule="evenodd"><path d="M53.595 48.427L40.613 27.578l-9.475 8.312 21.319 18.701 4.817 4.226c.333.292.666.585 1 .876.879.771 2.202-.215 1.549-1.263l-6.228-10.003M1.987 10.319c.641.644 1.367 1.199 2.05 1.799l6.504 5.704 8.507 7.463L29.117 9.113l-1.87-3.003c-.606-.972-.989-1.988-1.869-2.782-1.929-1.74-4.655-2.526-7.16-2.949A28.3 28.3 0 0 0 8.219.48C5.813.945 3.18 1.769 1.39 3.531.752 4.158.238 4.937.065 5.827a3.493 3.493 0 0 0 .072 1.632c.176.613.832 1.838 1.85 2.86zm8.645-8.172c.952-.1 1.91-.147 2.868-.147 2.637 0 5.349.324 7.827 1.265 1.29.491 3.135 1.31 3.596 2.759.414 1.298-.941 2.347-1.909 2.916-1.99 1.169-4.375 1.673-6.646 1.913-4.502.474-10.418.182-13.872-3.13-2.88-3.602 6.361-5.388 8.136-5.576zM60 6.5C60 2.17 53.548.545 50.294.24c-4.903-.459-10.763-.349-14.829 2.428-1.334.911-1.897 2.134-2.702 3.427l-2.165 3.477-18.689 30.015L3.265 53.47a8559.17 8559.17 0 0 1-3.028 4.863c-.587.943.441 2.277 1.423 1.419 1.667-1.136 3.15-2.763 4.663-4.091l11.513-10.098 28.726-25.199 9.178-8.051 1.964-1.723c.713-.625 1.281-1.389 1.757-2.21l.008-.013A3.704 3.704 0 0 0 60 6.5zM46.5 2c2.62 0 5.312.32 7.776 1.248 1.299.489 3.122 1.295 3.621 2.73.709 2.039-2.576 3.404-3.985 3.898-2.241.788-4.652 1.084-7.018 1.121-2.682.042-5.444-.261-7.979-1.173-1.349-.485-3.221-1.278-3.796-2.728-.501-1.267.731-2.332 1.689-2.929 1.921-1.195 4.267-1.717 6.487-1.982A27.021 27.021 0 0 1 46.5 2z"></path></g></g><!----></svg>